# xmcd
#
# Track frame offsets: 
#        180
#        14560
#        30347
#        44423
#        58366
#        72407
#        97037
#        110181
#        124463
#        134333
#        148979
#        160003
#        174083
#        187640
#        202563
#        216259
#        229910
#        243381
#
# Disc length: 3407 seconds
#
# Revision: 0
# Processed by: cddbd v1.5.2PL0 Copyright (c) Steve Scherf et al.
# Submitted via: ExactAudioCopyFreeDBPlugin 1.0
#
DISCID=080d4d12
DTITLE=Various Artist - The Voices Of The Great Divas [CD 1)
DYEAR=2005
DGENRE=
TTITLE0=Ella Fitzgerald - Guilty
TTITLE1=Edith Piaf - Mon Legionnaire
TTITLE2=Rosemary Clooney - My Old Flame
TTITLE3=Anita O'Day - And Her Tears Flowed Like Wine
TTITLE4=Peggy Lee - Don't Smoke In Bed
TTITLE5=Ella Fitzgerald - Flying Home
TTITLE6=Anita O'Day - Opus-1
TTITLE7=Peggy Lee - A Woman Alone With The Blues
TTITLE8=Judy Garland - Meet Me In St. Louis
TTITLE9=Peggy Lee - Be Anything (But Be Mine)
TTITLE10=Rosemary Clooney - It's Only A Paper Moon
TTITLE11=Jo Stafford - How Sweet You Are
TTITLE12=Billie Holiday - Miss Brown To You
TTITLE13=Anita O'Day - 'Murder' He Says
TTITLE14=Doris Day - Come Ton Baby, Do!
TTITLE15=Peggy Lee - Linger In My Arms A Little Longer
TTITLE16=Judy Garland - Singin' In The Rain
TTITLE17=Ella Fitzgerald - Cabin In The Sky
EXTD=
EXTT0=
EXTT1=
EXTT2=
EXTT3=
EXTT4=
EXTT5=
EXTT6=
EXTT7=
EXTT8=
EXTT9=
EXTT10=
EXTT11=
EXTT12=
EXTT13=
EXTT14=
EXTT15=
EXTT16=
EXTT17=
PLAYORDER=
